<svg width="120" height="90" viewBox="0 0 120 90" fill="none" xmlns="http://www.w3.org/2000/svg">
<path d="M24.2323 89.7716H2.39999C1.50192 89.7716 0.774181 89.0439 0.774181 88.1458V9.23225C0.774181 8.33419 1.50192 7.60645 2.39999 7.60645H24.2323C25.1303 7.60645 25.8581 8.33419 25.8581 9.23225V88.1458C25.8581 89.0439 25.1303 89.7716 24.2323 89.7716ZM4.0258 86.52H22.6064V10.8581H4.0258V86.52Z" fill="black"/>
<path d="M24.2323 25.8386H2.39999C1.50192 25.8386 0.774181 25.1109 0.774181 24.2128C0.774181 23.3148 1.50192 22.587 2.39999 22.587H24.2323C25.1303 22.587 25.8581 23.3148 25.8581 24.2128C25.8581 25.1109 25.1303 25.8386 24.2323 25.8386Z" fill="black"/>
<path d="M24.2323 35.8567H2.39999C1.50192 35.8567 0.774181 35.129 0.774181 34.2309C0.774181 33.3328 1.50192 32.6051 2.39999 32.6051H24.2323C25.1303 32.6051 25.8581 33.3328 25.8581 34.2309C25.8581 35.129 25.1303 35.8567 24.2323 35.8567Z" fill="black"/>
<path d="M17.5045 67.3819H9.12772C8.22966 67.3819 7.50191 66.6541 7.50191 65.7561C7.50191 64.858 8.22966 64.1302 9.12772 64.1302H17.5045C18.4026 64.1302 19.1303 64.858 19.1303 65.7561C19.1303 66.6541 18.4026 67.3819 17.5045 67.3819Z" fill="black"/>
<path d="M97.347 89.7717C96.7045 89.7717 96.0929 89.3846 95.8374 88.7497L66.3871 15.5343C66.0542 14.6981 66.4567 13.7536 67.2851 13.4207L87.538 5.27618C87.9406 5.1136 88.3819 5.12135 88.7845 5.29167C89.1793 5.46199 89.4967 5.77941 89.6516 6.18199L119.102 79.3975C119.264 79.8001 119.257 80.2414 119.086 80.6439C118.916 81.0388 118.599 81.3562 118.196 81.511L97.9432 89.6556C97.7574 89.733 97.5483 89.7717 97.347 89.7717ZM70.0103 15.8362L98.2451 86.0323L115.479 79.0956L87.2438 8.89941L70.0103 15.8362Z" fill="black"/>
<path d="M73.4864 30.4529C72.8438 30.4529 72.2322 30.0658 71.9767 29.431C71.6438 28.5949 72.0464 27.6503 72.8748 27.3174L93.1354 19.1729C93.9716 18.84 94.9161 19.2426 95.249 20.071C95.5819 20.9071 95.1793 21.8516 94.3509 22.1845L74.0903 30.3368C73.889 30.4142 73.6877 30.4529 73.4864 30.4529Z" fill="black"/>
<path d="M77.2258 39.751C76.5832 39.751 75.9716 39.3639 75.7161 38.7291C75.3832 37.8929 75.7858 36.9484 76.6142 36.6155L96.8671 28.471C97.7032 28.1381 98.6477 28.5407 98.9806 29.3691C99.3135 30.2052 98.911 31.1497 98.0826 31.4826L77.8297 39.6271C77.6284 39.7123 77.4271 39.751 77.2258 39.751Z" fill="black"/>
<path d="M96.178 66.1046C95.5355 66.1046 94.9238 65.7176 94.6684 65.0827C94.3355 64.2466 94.738 63.3021 95.5664 62.9692L101.435 60.6079C102.271 60.2749 103.215 60.6775 103.548 61.5059C103.881 62.3421 103.479 63.2866 102.65 63.6195L96.7819 65.9808C96.5883 66.0659 96.3793 66.1046 96.178 66.1046Z" fill="black"/>
<path d="M46.0645 20.6129H24.2322C23.3342 20.6129 22.6064 19.8852 22.6064 18.9871C22.6064 18.0891 23.3342 17.3613 24.2322 17.3613H46.0645C46.9626 17.3613 47.6903 18.0891 47.6903 18.9871C47.6903 19.8852 46.9626 20.6129 46.0645 20.6129Z" fill="black"/>
<path d="M39.3368 66.6387H30.96C30.0619 66.6387 29.3342 65.911 29.3342 65.0129C29.3342 64.1148 30.0619 63.3871 30.96 63.3871H39.3368C40.2348 63.3871 40.9626 64.1148 40.9626 65.0129C40.9626 65.911 40.2348 66.6387 39.3368 66.6387Z" fill="black"/>
<path d="M39.3368 76.1923H30.96C30.0619 76.1923 29.3342 75.4645 29.3342 74.5665C29.3342 73.6684 30.0619 72.9407 30.96 72.9407H39.3368C40.2348 72.9407 40.9626 73.6684 40.9626 74.5665C40.9626 75.4645 40.2348 76.1923 39.3368 76.1923Z" fill="black"/>
<path d="M39.3368 53.0516H30.96C30.0619 53.0516 29.3342 52.3238 29.3342 51.4258V29.2142C29.3342 28.3161 30.0619 27.5884 30.96 27.5884H39.3368C40.2348 27.5884 40.9626 28.3161 40.9626 29.2142V51.4258C40.9626 52.3238 40.2348 53.0516 39.3368 53.0516ZM32.5858 49.8H37.7109V30.84H32.5858V49.8Z" fill="black"/>
<path d="M67.8967 89.7716H46.0645C45.1664 89.7716 44.4387 89.0439 44.4387 88.1458V1.8542C44.4387 0.956135 45.1664 0.228394 46.0645 0.228394H67.8967C68.7948 0.228394 69.5226 0.956135 69.5226 1.8542V88.1536C69.5226 89.0439 68.7948 89.7716 67.8967 89.7716ZM47.6903 86.52H66.2709V3.48001H47.6903V86.52Z" fill="black"/>
<path d="M67.8967 17.9729H46.0645C45.1664 17.9729 44.4387 17.2452 44.4387 16.3471C44.4387 15.4491 45.1664 14.7213 46.0645 14.7213H67.8967C68.7948 14.7213 69.5226 15.4491 69.5226 16.3471C69.5226 17.2452 68.7948 17.9729 67.8967 17.9729Z" fill="black"/>
<path d="M67.8967 27.991H46.0645C45.1664 27.991 44.4387 27.2633 44.4387 26.3652C44.4387 25.4671 45.1664 24.7394 46.0645 24.7394H67.8967C68.7948 24.7394 69.5225 25.4671 69.5225 26.3652C69.5225 27.2633 68.7948 27.991 67.8967 27.991Z" fill="black"/>
<path d="M46.0645 89.7716H24.2322C23.3342 89.7716 22.6064 89.0439 22.6064 88.1458C22.6064 87.2478 23.3342 86.52 24.2322 86.52H46.0645C46.9626 86.52 47.6903 87.2478 47.6903 88.1458C47.6903 89.0439 46.9626 89.7716 46.0645 89.7716Z" fill="black"/>
<path d="M61.169 65.075H52.7922C51.8941 65.075 51.1664 64.3472 51.1664 63.4492C51.1664 62.5511 51.8941 61.8234 52.7922 61.8234H61.169C62.067 61.8234 62.7948 62.5511 62.7948 63.4492C62.7948 64.3472 62.067 65.075 61.169 65.075Z" fill="black"/>
<path d="M61.169 74.6284H52.7922C51.8941 74.6284 51.1664 73.9007 51.1664 73.0026C51.1664 72.1046 51.8941 71.3768 52.7922 71.3768H61.169C62.067 71.3768 62.7948 72.1046 62.7948 73.0026C62.7948 73.9007 62.067 74.6284 61.169 74.6284Z" fill="black"/>
<path d="M56.9806 51.7355C53.7135 51.7355 51.058 49.08 51.058 45.813C51.058 42.5459 53.7135 39.8904 56.9806 39.8904C60.2477 39.8904 62.9032 42.5459 62.9032 45.813C62.9032 49.08 60.2477 51.7355 56.9806 51.7355ZM56.9806 43.142C55.5096 43.142 54.3096 44.342 54.3096 45.813C54.3096 47.2839 55.5096 48.4839 56.9806 48.4839C58.4516 48.4839 59.6516 47.2839 59.6516 45.813C59.6516 44.342 58.4516 43.142 56.9806 43.142Z" fill="black"/>
</svg>
