<svg aria-hidden="true" style="position: absolute; width: 0; height: 0; overflow: hidden;" version="1.1" xmlns="http://www.w3.org/2000/svg" xmlns:xlink="http://www.w3.org/1999/xlink">
<defs>
<symbol id="icon-tags" viewBox="0 0 100 100">
<path d="M39.757 67.3851L53.5676 25.9529C54.0791 24.4179 53.2496 22.7587 51.7146 22.247C50.1799 21.7355 48.5205 22.565 48.0088 24.1L34.1982 65.5322C33.6867 67.0672 34.5162 68.7263 36.0512 69.2381C36.3584 69.3404 36.6709 69.389 36.9779 69.389C38.2045 69.3892 39.3477 68.6129 39.757 67.3851Z" fill="black"/>
<path d="M60.4557 54.5319C65.3019 54.5319 69.2447 50.5891 69.2447 45.7428C69.2447 40.8965 65.3019 36.9537 60.4557 36.9537C55.6094 36.9537 51.6666 40.8965 51.6666 45.7428C51.6666 50.5891 55.6094 54.5319 60.4557 54.5319ZM60.4557 42.8131C62.0711 42.8131 63.3853 44.1274 63.3853 45.7428C63.3853 47.3582 62.0711 48.6725 60.4557 48.6725C58.8402 48.6725 57.526 47.3582 57.526 45.7428C57.526 44.1274 58.8402 42.8131 60.4557 42.8131Z" fill="black"/>
<path d="M27.31 36.9537C22.4637 36.9537 18.5209 40.8965 18.5209 45.7428C18.5209 50.5891 22.4637 54.5319 27.31 54.5319C32.1562 54.5319 36.099 50.5891 36.099 45.7428C36.099 40.8965 32.1564 36.9537 27.31 36.9537ZM27.31 48.6725C25.6945 48.6725 24.3803 47.3582 24.3803 45.7428C24.3803 44.1274 25.6945 42.8131 27.31 42.8131C28.9254 42.8131 30.2396 44.1274 30.2396 45.7428C30.2396 47.3582 28.9256 48.6725 27.31 48.6725Z" fill="black"/>
<path d="M99.4143 36.3283L89.198 22.7066L89.5967 19.917C89.727 19.0041 89.4201 18.083 88.768 17.4311L82.5531 11.2162L88.7678 5.00137C89.9119 3.85742 89.9119 2.00234 88.7678 0.858203C87.6238 -0.285742 85.7687 -0.285742 84.6246 0.858203L78.41 7.07305L72.1951 0.858203C71.5432 0.206055 70.6221 -0.0998047 69.7092 0.0294921L40.7066 4.17266C40.0791 4.2623 39.4977 4.55312 39.0494 5.00137L3.1416 40.9092C-1.04687 45.0975 -1.04687 51.9127 3.1416 56.101L33.525 86.4846C34.1465 87.106 34.827 87.6332 35.5471 88.0701V89.258C35.5471 95.1812 40.366 100 46.2893 100H89.258C95.1812 100 100 95.1812 100 89.258V38.0861C100 37.4523 99.7945 36.8354 99.4143 36.3283ZM7.28477 51.9578C5.38086 50.0539 5.38086 46.9562 7.28477 45.0523L42.5019 9.83516L69.0875 6.0373L74.2666 11.2164L70.1234 15.3596L68.0518 13.2879C66.9078 12.1439 65.0527 12.1439 63.9086 13.2879C62.7645 14.4318 62.7645 16.2869 63.9086 17.4311L72.1951 25.7176C72.7672 26.2896 73.517 26.5758 74.2666 26.5758C75.0162 26.5758 75.7662 26.2896 76.3381 25.7176C77.4822 24.5736 77.4822 22.7186 76.3381 21.5744L74.2664 19.5027L78.4096 15.3596L83.5887 20.5387L79.7906 47.1242L44.5736 82.3414C43.6514 83.2637 42.4252 83.7715 41.1209 83.7715C39.8166 83.7715 38.5904 83.2635 37.6682 82.3414L7.28477 51.9578ZM94.1408 89.258C94.1408 91.9504 91.9504 94.1408 89.258 94.1408H46.2893C43.7182 94.1408 41.6064 92.1432 41.4211 89.6186C44.0709 89.5451 46.6988 88.5025 48.7166 86.4846L84.6244 50.5768C85.0727 50.1285 85.3635 49.5471 85.4531 48.9195L88.026 30.9098L94.1408 39.0627V89.258Z" fill="black"/>
</symbol>
<symbol id="icon-books" viewBox="0 0 120 90">
<path d="M24.2323 89.7716H2.39999C1.50192 89.7716 0.774181 89.0439 0.774181 88.1458V9.23225C0.774181 8.33419 1.50192 7.60645 2.39999 7.60645H24.2323C25.1303 7.60645 25.8581 8.33419 25.8581 9.23225V88.1458C25.8581 89.0439 25.1303 89.7716 24.2323 89.7716ZM4.0258 86.52H22.6064V10.8581H4.0258V86.52Z" fill="black"/>
<path d="M24.2323 25.8386H2.39999C1.50192 25.8386 0.774181 25.1109 0.774181 24.2128C0.774181 23.3148 1.50192 22.587 2.39999 22.587H24.2323C25.1303 22.587 25.8581 23.3148 25.8581 24.2128C25.8581 25.1109 25.1303 25.8386 24.2323 25.8386Z" fill="black"/>
<path d="M24.2323 35.8567H2.39999C1.50192 35.8567 0.774181 35.129 0.774181 34.2309C0.774181 33.3328 1.50192 32.6051 2.39999 32.6051H24.2323C25.1303 32.6051 25.8581 33.3328 25.8581 34.2309C25.8581 35.129 25.1303 35.8567 24.2323 35.8567Z" fill="black"/>
<path d="M17.5045 67.3819H9.12772C8.22966 67.3819 7.50191 66.6541 7.50191 65.7561C7.50191 64.858 8.22966 64.1302 9.12772 64.1302H17.5045C18.4026 64.1302 19.1303 64.858 19.1303 65.7561C19.1303 66.6541 18.4026 67.3819 17.5045 67.3819Z" fill="black"/>
<path d="M97.347 89.7717C96.7045 89.7717 96.0929 89.3846 95.8374 88.7497L66.3871 15.5343C66.0542 14.6981 66.4567 13.7536 67.2851 13.4207L87.538 5.27618C87.9406 5.1136 88.3819 5.12135 88.7845 5.29167C89.1793 5.46199 89.4967 5.77941 89.6516 6.18199L119.102 79.3975C119.264 79.8001 119.257 80.2414 119.086 80.6439C118.916 81.0388 118.599 81.3562 118.196 81.511L97.9432 89.6556C97.7574 89.733 97.5483 89.7717 97.347 89.7717ZM70.0103 15.8362L98.2451 86.0323L115.479 79.0956L87.2438 8.89941L70.0103 15.8362Z" fill="black"/>
<path d="M73.4864 30.4529C72.8438 30.4529 72.2322 30.0658 71.9767 29.431C71.6438 28.5949 72.0464 27.6503 72.8748 27.3174L93.1354 19.1729C93.9716 18.84 94.9161 19.2426 95.249 20.071C95.5819 20.9071 95.1793 21.8516 94.3509 22.1845L74.0903 30.3368C73.889 30.4142 73.6877 30.4529 73.4864 30.4529Z" fill="black"/>
<path d="M77.2258 39.751C76.5832 39.751 75.9716 39.3639 75.7161 38.7291C75.3832 37.8929 75.7858 36.9484 76.6142 36.6155L96.8671 28.471C97.7032 28.1381 98.6477 28.5407 98.9806 29.3691C99.3135 30.2052 98.911 31.1497 98.0826 31.4826L77.8297 39.6271C77.6284 39.7123 77.4271 39.751 77.2258 39.751Z" fill="black"/>
<path d="M96.178 66.1046C95.5355 66.1046 94.9238 65.7176 94.6684 65.0827C94.3355 64.2466 94.738 63.3021 95.5664 62.9692L101.435 60.6079C102.271 60.2749 103.215 60.6775 103.548 61.5059C103.881 62.3421 103.479 63.2866 102.65 63.6195L96.7819 65.9808C96.5883 66.0659 96.3793 66.1046 96.178 66.1046Z" fill="black"/>
<path d="M46.0645 20.6129H24.2322C23.3342 20.6129 22.6064 19.8852 22.6064 18.9871C22.6064 18.0891 23.3342 17.3613 24.2322 17.3613H46.0645C46.9626 17.3613 47.6903 18.0891 47.6903 18.9871C47.6903 19.8852 46.9626 20.6129 46.0645 20.6129Z" fill="black"/>
<path d="M39.3368 66.6387H30.96C30.0619 66.6387 29.3342 65.911 29.3342 65.0129C29.3342 64.1148 30.0619 63.3871 30.96 63.3871H39.3368C40.2348 63.3871 40.9626 64.1148 40.9626 65.0129C40.9626 65.911 40.2348 66.6387 39.3368 66.6387Z" fill="black"/>
<path d="M39.3368 76.1923H30.96C30.0619 76.1923 29.3342 75.4645 29.3342 74.5665C29.3342 73.6684 30.0619 72.9407 30.96 72.9407H39.3368C40.2348 72.9407 40.9626 73.6684 40.9626 74.5665C40.9626 75.4645 40.2348 76.1923 39.3368 76.1923Z" fill="black"/>
<path d="M39.3368 53.0516H30.96C30.0619 53.0516 29.3342 52.3238 29.3342 51.4258V29.2142C29.3342 28.3161 30.0619 27.5884 30.96 27.5884H39.3368C40.2348 27.5884 40.9626 28.3161 40.9626 29.2142V51.4258C40.9626 52.3238 40.2348 53.0516 39.3368 53.0516ZM32.5858 49.8H37.7109V30.84H32.5858V49.8Z" fill="black"/>
<path d="M67.8967 89.7716H46.0645C45.1664 89.7716 44.4387 89.0439 44.4387 88.1458V1.8542C44.4387 0.956135 45.1664 0.228394 46.0645 0.228394H67.8967C68.7948 0.228394 69.5226 0.956135 69.5226 1.8542V88.1536C69.5226 89.0439 68.7948 89.7716 67.8967 89.7716ZM47.6903 86.52H66.2709V3.48001H47.6903V86.52Z" fill="black"/>
<path d="M67.8967 17.9729H46.0645C45.1664 17.9729 44.4387 17.2452 44.4387 16.3471C44.4387 15.4491 45.1664 14.7213 46.0645 14.7213H67.8967C68.7948 14.7213 69.5226 15.4491 69.5226 16.3471C69.5226 17.2452 68.7948 17.9729 67.8967 17.9729Z" fill="black"/>
<path d="M67.8967 27.991H46.0645C45.1664 27.991 44.4387 27.2633 44.4387 26.3652C44.4387 25.4671 45.1664 24.7394 46.0645 24.7394H67.8967C68.7948 24.7394 69.5225 25.4671 69.5225 26.3652C69.5225 27.2633 68.7948 27.991 67.8967 27.991Z" fill="black"/>
<path d="M46.0645 89.7716H24.2322C23.3342 89.7716 22.6064 89.0439 22.6064 88.1458C22.6064 87.2478 23.3342 86.52 24.2322 86.52H46.0645C46.9626 86.52 47.6903 87.2478 47.6903 88.1458C47.6903 89.0439 46.9626 89.7716 46.0645 89.7716Z" fill="black"/>
<path d="M61.169 65.075H52.7922C51.8941 65.075 51.1664 64.3472 51.1664 63.4492C51.1664 62.5511 51.8941 61.8234 52.7922 61.8234H61.169C62.067 61.8234 62.7948 62.5511 62.7948 63.4492C62.7948 64.3472 62.067 65.075 61.169 65.075Z" fill="black"/>
<path d="M61.169 74.6284H52.7922C51.8941 74.6284 51.1664 73.9007 51.1664 73.0026C51.1664 72.1046 51.8941 71.3768 52.7922 71.3768H61.169C62.067 71.3768 62.7948 72.1046 62.7948 73.0026C62.7948 73.9007 62.067 74.6284 61.169 74.6284Z" fill="black"/>
<path d="M56.9806 51.7355C53.7135 51.7355 51.058 49.08 51.058 45.813C51.058 42.5459 53.7135 39.8904 56.9806 39.8904C60.2477 39.8904 62.9032 42.5459 62.9032 45.813C62.9032 49.08 60.2477 51.7355 56.9806 51.7355ZM56.9806 43.142C55.5096 43.142 54.3096 44.342 54.3096 45.813C54.3096 47.2839 55.5096 48.4839 56.9806 48.4839C58.4516 48.4839 59.6516 47.2839 59.6516 45.813C59.6516 44.342 58.4516 43.142 56.9806 43.142Z" fill="black"/>
</symbol>
<symbol id="icon-screen" viewBox="0 0 98 98">
<path d="M91.9688 11.5H86.5V6.03125C86.4984 4.58134 85.9217 3.19127 84.8965 2.16603C83.8712 1.14079 82.4812 0.564103 81.0312 0.5625H16.9688C15.5188 0.564103 14.1288 1.14079 13.1035 2.16603C12.0783 3.19127 11.5016 4.58134 11.5 6.03125V11.5H6.03125C4.58134 11.5016 3.19127 12.0783 2.16603 13.1035C1.14079 14.1288 0.564103 15.5188 0.5625 16.9688V76.3438C0.564103 77.7937 1.14079 79.1837 2.16603 80.209C3.19127 81.2342 4.58134 81.8109 6.03125 81.8125H35.9902L33.7598 89.625H27.125C26.7106 89.625 26.3132 89.7896 26.0201 90.0826C25.7271 90.3757 25.5625 90.7731 25.5625 91.1875V95.875C25.5625 96.2894 25.7271 96.6868 26.0201 96.9799C26.3132 97.2729 26.7106 97.4375 27.125 97.4375H70.875C71.2894 97.4375 71.6868 97.2729 71.9799 96.9799C72.2729 96.6868 72.4375 96.2894 72.4375 95.875V91.1875C72.4375 90.7731 72.2729 90.3757 71.9799 90.0826C71.6868 89.7896 71.2894 89.625 70.875 89.625H64.2402L62.0098 81.8125H91.9688C93.4187 81.8109 94.8087 81.2342 95.834 80.209C96.8592 79.1837 97.4359 77.7937 97.4375 76.3438V16.9688C97.4359 15.5188 96.8592 14.1288 95.834 13.1035C94.8087 12.0783 93.4187 11.5016 91.9688 11.5ZM14.625 6.03125C14.6255 5.40981 14.8726 4.81397 15.312 4.37454C15.7515 3.93511 16.3473 3.68802 16.9688 3.6875H81.0312C81.6527 3.68802 82.2485 3.93511 82.688 4.37454C83.1274 4.81397 83.3745 5.40981 83.375 6.03125V9.9375H14.625V6.03125ZM14.625 13.0625H83.375V60.7188C83.3745 61.3402 83.1274 61.936 82.688 62.3755C82.2485 62.8149 81.6527 63.062 81.0312 63.0625H52.125V50.5625C52.123 48.9342 51.4865 47.3708 50.3506 46.2042C49.2146 45.0376 47.6687 44.3597 46.041 44.3145L39.625 43.0312V42.0957C41.017 41.4866 42.2015 40.4853 43.0339 39.2141C43.8663 37.943 44.3106 36.457 44.3125 34.9375V28.6875C44.3104 26.6161 43.4867 24.6302 42.022 23.1655C40.5573 21.7008 38.5714 20.8771 36.5 20.875H33.375C31.3036 20.8771 29.3177 21.7008 27.853 23.1655C26.3883 24.6302 25.5646 26.6161 25.5625 28.6875V34.9375C25.5644 36.457 26.0087 37.943 26.8411 39.2141C27.6735 40.4853 28.858 41.4866 30.25 42.0957V43.0312L23.834 44.3145C22.2063 44.3597 20.6604 45.0376 19.5245 46.2042C18.3885 47.3708 17.752 48.9342 17.75 50.5625V63.0625H16.9688C16.3473 63.062 15.7515 62.8149 15.312 62.3755C14.8726 61.936 14.6255 61.3402 14.625 60.7188V13.0625ZM44.3125 53.6875C43.8981 53.6875 43.5007 53.8521 43.2076 54.1451C42.9146 54.4382 42.75 54.8356 42.75 55.25V63.0625H27.125V55.25C27.125 54.8356 26.9604 54.4382 26.6674 54.1451C26.3743 53.8521 25.9769 53.6875 25.5625 53.6875C25.1481 53.6875 24.7507 53.8521 24.4576 54.1451C24.1646 54.4382 24 54.8356 24 55.25V63.0625H20.875V50.5625C20.8761 49.734 21.2057 48.9398 21.7915 48.354C22.3773 47.7682 23.1715 47.4386 24 47.4375C24.103 47.4378 24.2058 47.4274 24.3066 47.4062L30.623 46.1445C30.9827 46.9913 31.5835 47.7135 32.3507 48.2211C33.1179 48.7288 34.0175 48.9995 34.9375 48.9995C35.8575 48.9995 36.7571 48.7288 37.5243 48.2211C38.2915 47.7135 38.8923 46.9913 39.252 46.1445L45.5684 47.4062C45.6692 47.4274 45.772 47.4378 45.875 47.4375C46.7035 47.4386 47.4977 47.7682 48.0835 48.354C48.6693 48.9398 48.9989 49.734 49 50.5625V63.0625H45.875V55.25C45.875 54.8356 45.7104 54.4382 45.4174 54.1451C45.1243 53.8521 44.7269 53.6875 44.3125 53.6875ZM41.1875 31.2129V34.9375C41.1858 36.1802 40.6915 37.3715 39.8127 38.2502C38.934 39.129 37.7427 39.6233 36.5 39.625H33.375C32.1323 39.6233 30.941 39.129 30.0623 38.2502C29.1835 37.3715 28.6892 36.1802 28.6875 34.9375V33.3379C31.4004 33.2324 37.0586 32.8203 41.1875 31.2129ZM28.6875 30.2129V28.6875C28.6892 27.4448 29.1835 26.2535 30.0623 25.3748C30.941 24.496 32.1323 24.0017 33.375 24H36.5C37.595 24.0017 38.655 24.3859 39.4967 25.0864C40.3384 25.7869 40.9088 26.7594 41.1094 27.8359C37.8594 29.4961 32.0469 30.0742 28.6875 30.2129ZM36.5 42.75V44.3125C36.5 44.7269 36.3354 45.1243 36.0424 45.4174C35.7493 45.7104 35.3519 45.875 34.9375 45.875C34.5231 45.875 34.1257 45.7104 33.8326 45.4174C33.5396 45.1243 33.375 44.7269 33.375 44.3125V42.75H36.5ZM69.3125 92.75V94.3125H28.6875V92.75H69.3125ZM37.0098 89.625L39.2402 81.8125H58.7598L60.9902 89.625H37.0098ZM94.3125 76.3438C94.312 76.9652 94.0649 77.561 93.6255 78.0005C93.186 78.4399 92.5902 78.687 91.9688 78.6875H6.03125C5.40981 78.687 4.81397 78.4399 4.37454 78.0005C3.93511 77.561 3.68802 76.9652 3.6875 76.3438V72.4375H94.3125V76.3438ZM94.3125 69.3125H3.6875V16.9688C3.68802 16.3473 3.93511 15.7515 4.37454 15.312C4.81397 14.8726 5.40981 14.6255 6.03125 14.625H11.5V60.7188C11.5016 62.1687 12.0783 63.5587 13.1035 64.584C14.1288 65.6092 15.5188 66.1859 16.9688 66.1875H81.0312C82.4812 66.1859 83.8712 65.6092 84.8965 64.584C85.9217 63.5587 86.4984 62.1687 86.5 60.7188V14.625H91.9688C92.5902 14.6255 93.186 14.8726 93.6255 15.312C94.0649 15.7515 94.312 16.3473 94.3125 16.9688V69.3125Z" fill="black"/>
</symbol>
<symbol id="icon-star" viewBox="0 0 110 105">
<path d="M83.0462 104.341C81.6228 104.342 80.2207 103.995 78.9625 103.329L55.5887 91.0438C55.4076 90.9469 55.2054 90.8963 55 90.8963C54.7946 90.8963 54.5924 90.9469 54.4112 91.0438L31.0412 103.329C29.593 104.091 27.9604 104.432 26.3282 104.315C24.6959 104.197 23.1291 103.625 21.8051 102.663C20.4812 101.701 19.4528 100.388 18.8364 98.8721C18.2201 97.3561 18.0403 95.6979 18.3175 94.085L22.78 68.0638C22.8143 67.8599 22.798 67.6507 22.7326 67.4546C22.6673 67.2584 22.5548 67.0813 22.405 66.9388L3.5125 48.5C2.33951 47.3572 1.51003 45.9087 1.11806 44.3187C0.726089 42.7286 0.78729 41.0606 1.29473 39.5035C1.80217 37.9465 2.73556 36.5627 3.98914 35.5089C5.24273 34.4551 6.76639 33.7735 8.3875 33.5413L34.4987 29.75C34.7019 29.7205 34.8948 29.6418 35.0608 29.521C35.2268 29.4001 35.3608 29.2406 35.4512 29.0563L47.125 5.37503C47.8481 3.90698 48.9677 2.67071 50.3572 1.80621C51.7467 0.941713 53.3504 0.483521 54.9869 0.483521C56.6233 0.483521 58.2271 0.941713 59.6166 1.80621C61.006 2.67071 62.1257 3.90698 62.8487 5.37503L74.53 29.0488C74.6212 29.2325 74.7555 29.3915 74.9213 29.5123C75.0871 29.6331 75.2796 29.7121 75.4825 29.7425L101.616 33.5375C103.237 33.7711 104.759 34.4534 106.012 35.5073C107.265 36.5613 108.197 37.9447 108.705 39.5012C109.212 41.0577 109.273 42.7251 108.882 44.3148C108.491 45.9044 107.663 47.3529 106.491 48.4963L87.58 66.9238C87.4308 67.0667 87.3186 67.2439 87.2533 67.4399C87.1879 67.6359 87.1714 67.8449 87.205 68.0488L91.6675 94.07C91.8822 95.3273 91.8203 96.6163 91.4862 97.8472C91.152 99.0782 90.5537 100.222 89.7328 101.198C88.9118 102.174 87.888 102.96 86.7327 103.5C85.5772 104.04 84.318 104.322 83.0425 104.326L83.0462 104.341ZM55 83.3938C56.4222 83.3935 57.8229 83.7411 59.08 84.4063L82.45 96.6875C82.6568 96.8058 82.8941 96.86 83.1317 96.8433C83.3694 96.8266 83.5967 96.7398 83.785 96.5938C83.9815 96.459 84.1341 96.2696 84.2241 96.049C84.3141 95.8284 84.3374 95.5863 84.2913 95.3525L79.825 69.3275C79.5864 67.9269 79.6911 66.4893 80.13 65.138C80.5689 63.7866 81.3289 62.5619 82.345 61.5688L101.256 43.1375C101.425 42.9722 101.544 42.763 101.601 42.5335C101.657 42.3039 101.648 42.0633 101.574 41.8386C101.501 41.614 101.366 41.4143 101.186 41.2622C101.005 41.11 100.785 41.0114 100.551 40.9775L74.4212 37.1788C73.0145 36.9751 71.6784 36.432 70.5285 35.5963C69.3786 34.7607 68.4494 33.6577 67.8213 32.3825L56.125 8.70503C56.0202 8.49314 55.8583 8.31476 55.6576 8.19004C55.4568 8.06531 55.2251 7.99922 54.9887 7.99922C54.7524 7.99922 54.5207 8.06531 54.3199 8.19004C54.1192 8.31476 53.9572 8.49314 53.8525 8.70503L42.1787 32.375C41.5502 33.6506 40.6205 34.754 39.4699 35.5896C38.3193 36.4253 36.9825 36.9682 35.575 37.1713L9.44875 40.9775C9.21441 41.0107 8.99409 41.109 8.81287 41.2612C8.63166 41.4134 8.49683 41.6135 8.42375 41.8386C8.35067 42.0637 8.34227 42.3048 8.39951 42.5345C8.45674 42.7641 8.57732 42.9731 8.7475 43.1375L27.655 61.5688C28.6711 62.5619 29.4311 63.7866 29.87 65.138C30.3089 66.4893 30.4136 67.9269 30.175 69.3275L25.7087 95.3525C25.6682 95.5863 25.6942 95.8268 25.7836 96.0466C25.873 96.2664 26.0224 96.4567 26.2146 96.5958C26.4069 96.7349 26.6343 96.8173 26.871 96.8335C27.1078 96.8497 27.3443 96.7991 27.5537 96.6875L50.92 84.4025C52.1779 83.74 53.5783 83.3938 55 83.3938Z" fill="black"/>
</symbol>
 <symbol id="icon-blue-star" viewBox="0 0 125 125">
<path id="Ellipse_18" data-name="Ellipse 18" d="M62.5,0A62.5,62.5,0,1,1,0,62.5,62.5,62.5,0,0,1,62.5,0Z" fill="#f8f8f8"/>
  <g id="estrella-azul" transform="translate(23 25)">
    <path id="Trazado_1" data-name="Trazado 1" d="M78.834-1187.484c-2.145,4.877-4.755,10.814-5.8,13.2s-1.906,4.335-1.919,4.348-1.99.161-4.406.336l-9.774.7c-2.965.22-7.022.51-9.012.652s-3.779.278-3.973.3l-.349.039.317.3,4.419,3.947,6.564,5.846c8.185,7.3,10.078,8.986,10.155,9.044.11.084.478-1.473-3.5,14.632-1.654,6.693-3,12.19-2.991,12.21s5.614-3.224,12.455-7.216,12.475-7.248,12.533-7.235,2.571,1.563,5.588,3.437,7.526,4.677,10.013,6.221,5.239,3.256,6.118,3.8,1.609.995,1.634.995.026-.11,0-.245c-.039-.22-2.655-12.255-5.013-23.05-.562-2.6-1.027-4.768-1.027-4.826,0-.084,4.193-3.637,19.361-16.422,1.667-1.4,1.686-1.421,1.486-1.467-.116-.026-6.531-.672-14.258-1.441s-14.109-1.421-14.187-1.454a16.167,16.167,0,0,1-1.286-2.881c-.633-1.563-2.662-6.544-4.5-11.073s-3.644-8.967-4.005-9.852-.672-1.635-.7-1.667S80.979-1192.361,78.834-1187.484Z" transform="translate(-43.6 1196.302)" fill="#5d63f6"/>
  </g>
</symbol>
 
</defs>
</svg>

 

 

